PathFileType	4	(X/Y/Z)	..\data\2014019\dynamic\2014019_C4_05.trc
DataRate	CameraRate	NumFrames	NumMarkers	Units	OrigDataRate	OrigDataStartFrame	OrigNumFrames
100.000000	100.000000	4	52	mm	100.000000	0	172
Frame#	Time	L_IAS			L_IPS			R_IPS			R_IAS			L_FTC			L_FLE			L_FME			L_FAX			L_TTC			L_FAL			L_TAM			L_FCC			L_FM1			L_FM2			L_FM5			R_FTC			R_FLE			R_FME			R_FAX			R_TTC			R_FAL			R_TAM			R_FCC			R_FM1			R_FM2			R_FM5			CV7			TV10			SXS			SJN			L_SIA			L_SRS			L_SAA			L_SAE			L_HLE			L_HME			L_UOA			L_RSP			L_UHE			L_HM2			L_HM5			R_SIA			R_SRS			R_SAA			R_SAE			R_HLE			R_HME			R_UOA			R_RSP			R_UHE			R_HM2			R_HM5			
		X1	Y1	Z1	X2	Y2	Z2	X3	Y3	Z3	X4	Y4	Z4	X5	Y5	Z5	X6	Y6	Z6	X7	Y7	Z7	X8	Y8	Z8	X9	Y9	Z9	X10	Y10	Z10	X11	Y11	Z11	X12	Y12	Z12	X13	Y13	Z13	X14	Y14	Z14	X15	Y15	Z15	X16	Y16	Z16	X17	Y17	Z17	X18	Y18	Z18	X19	Y19	Z19	X20	Y20	Z20	X21	Y21	Z21	X22	Y22	Z22	X23	Y23	Z23	X24	Y24	Z24	X25	Y25	Z25	X26	Y26	Z26	X27	Y27	Z27	X28	Y28	Z28	X29	Y29	Z29	X30	Y30	Z30	X31	Y31	Z31	X32	Y32	Z32	X33	Y33	Z33	X34	Y34	Z34	X35	Y35	Z35	X36	Y36	Z36	X37	Y37	Z37	X38	Y38	Z38	X39	Y39	Z39	X40	Y40	Z40	X41	Y41	Z41	X42	Y42	Z42	X43	Y43	Z43	X44	Y44	Z44	X45	Y45	Z45	X46	Y46	Z46	X47	Y47	Z47	X48	Y48	Z48	X49	Y49	Z49	X50	Y50	Z50	X51	Y51	Z51	X52	Y52	Z52	

1	0	-1249.999633789063	914.305847167969	135.0404815673827	-1464.392700195313	968.8174438476565	190.3808441162108	-1471.462890625	973.3770751953127	284.3827209472655	-1267.608154296875	917.7687988281252	369.5607299804686	-1324.466674804688	848.5000000000002	44.13199996948227	-1157.526733398438	473.5356445312501	98.90028381347645	-1183.216796875	443.3660583496095	231.3846435546874	-1157.078002929688	415.1712341308595	91.67794799804675	-1104.900024414063	422.1893005371095	145.3940887451171	-1033.92041015625	80.58950805664064	124.7742462158202	-1017.487060546875	117.3839492797852	213.2234344482421	-1054.87939453125	22.95548057556153	169.7348022460936	-888.0515747070315	102.9826431274414	217.783706665039	-879.2295532226565	122.8203506469727	162.7369232177734	-897.0891723632815	89.49927520751955	114.9344100952148	-1396.16796875	858.029724121094	442.3078308105468	-1462.468872070313	452.3777465820314	377.6242370605468	-1459.960205078125	447.1426086425782	241.6614837646483	-1506.013305664063	403.6952514648439	377.9183654785155	-1453.682373046875	368.5986022949219	324.0391845703124	-1655.098266601563	93.88107299804689	327.8677673339842	-1629.433349609375	99.1879806518555	239.0747680664061	-1709.296875	58.98204040527345	273.1139221191405	-1512.969848632813	23.00984573364258	259.132110595703	-1504.036376953125	35.90678787231446	315.7836303710936	-1557.199340820313	22.46903991699219	366.7453613281249	-1421.26611328125	1453.673217773438	257.3442993164061	-1488.061157226563	1239.206176757813	257.8777770996093	-1258.843017578125	1135.820556640625	242.9203643798827	-1299.59033203125	1364.118408203125	247.7821502685546	-1497.901123046875	1273.73974609375	183.3639526367186	-1458.870727539063	1400.953369140625	149.1342163085936	-1430.017456054688	1396.014770507813	84.68085479736312	-1383.2421875	1411.5234375	67.72535705566391	-1478.256591796875	1092.2685546875	24.48909568786604	-1477.251708984375	1085.977172851563	92.92572021484358	-1491.375122070313	1070.619750976563	68.3128585815428	-1444.332763671875	842.1751708984377	-22.24536705017108	-1513.76318359375	866.9719238281252	-36.55061721801777	-1460.316162109375	750.7015380859376	-39.66245651245136	-1551.963989257813	788.301452636719	-30.81194496154805	-1492.782958984375	1272.186401367188	337.7621765136718	-1445.94580078125	1401.860107421875	365.9472656249999	-1396.496826171875	1401.927856445313	423.1782531738281	-1358.056640625	1419.361450195313	422.7099609374999	-1331.936157226563	1096.214111328125	519.8307495117188	-1372.381469726563	1075.5126953125	456.0851135253906	-1362.220947265625	1053.934448242188	495.3204650878906	-1136.794311523438	933.1528320312502	473.7777709960938	-1181.635498046875	906.715026855469	523.7039184570312	-1068.67529296875	866.352478027344	482.8963623046875	-1157.087524414063	825.083190917969	511.65234375	
2	0.01	-1235.375610351563	913.0076904296877	134.8786468505858	-1450.12841796875	967.6916503906252	188.7073822021483	-1457.539916992188	972.2174072265627	282.705352783203	-1254.430297851563	916.2983398437502	369.4352111816405	-1309.455322265625	847.5653076171877	43.23434066772445	-1143.344482421875	472.606658935547	98.64189910888661	-1170.965087890625	441.7544250488282	230.5986022949218	-1142.873168945313	414.2071838378907	91.00817108154284	-1091.429565429688	421.2280578613282	145.5243988037108	-1018.9951171875	80.07382202148439	124.3912506103515	-1003.623168945313	116.7591552734375	213.1066284179687	-1040.387573242188	22.55778884887696	168.9947204589843	-874.0693359375002	102.7524032592774	218.9598541259765	-864.6492309570315	122.3495864868164	163.9756622314452	-882.016296386719	88.9983367919922	116.1320266723632	-1383.504272460938	857.1781005859377	441.2579345703124	-1451.99560546875	452.0365295410157	377.0337524414061	-1448.773071289063	446.3918457031251	241.1375732421874	-1496.520751953125	404.1304626464845	377.3744506835936	-1444.775634765625	367.6242675781251	323.894561767578	-1653.177490234375	97.59997558593753	328.3874206542967	-1627.133544921875	102.2184982299805	239.6698608398436	-1708.085205078125	64.11851501464845	273.404571533203	-1512.786865234375	22.87670516967774	259.427276611328	-1503.766357421875	35.76531982421876	315.9129943847655	-1557.096313476563	22.46025657653809	366.6578674316405	-1408.160034179688	1452.345825195313	255.6239471435546	-1474.493896484375	1237.764404296875	256.203887939453	-1245.233520507813	1134.5966796875	242.2482757568359	-1286.2724609375	1362.953002929688	246.6239624023436	-1483.970825195313	1272.218017578125	181.4101715087889	-1445.0556640625	1399.53515625	147.3503570556639	-1415.914184570313	1394.882690429688	83.10654449462875	-1369.128295898438	1410.3935546875	66.28724670410141	-1465.98681640625	1092.0419921875	23.10577201843244	-1464.844848632813	1085.633544921875	91.48020935058577	-1479.114624023438	1070.542602539063	66.97035217285139	-1436.208251953125	841.5186157226565	-23.48131179809588	-1504.92041015625	867.4635009765627	-38.01000213623066	-1453.999267578125	749.7904052734376	-39.95455932617206	-1544.791259765625	789.721130371094	-31.6387710571291	-1479.607666015625	1270.718627929688	335.8668518066405	-1433.322387695313	1400.5439453125	364.1361694335936	-1384.177734375	1400.744018554688	421.6379699707031	-1345.760620117188	1418.285278320313	421.3292236328124	-1319.156005859375	1095.207885742188	518.6493530273438	-1359.48046875	1074.3251953125	454.8580932617187	-1349.186889648438	1052.685424804688	494.1452331542968	-1121.997314453125	934.9356689453127	472.5080261230469	-1166.60302734375	907.640808105469	522.1881713867188	-1053.055908203125	869.071472167969	481.5447692871094	-1140.883666992188	826.410339355469	509.8810729980469	
3	0.02	-1220.567260742188	911.9263305664065	134.5927886962889	-1435.67529296875	966.676452636719	187.0856323242186	-1443.356689453125	971.0891723632815	281.0687866210936	-1240.961059570313	914.8834228515627	369.1955261230468	-1294.14306640625	846.9454345703127	42.21836090087876	-1129.081298828125	471.8263244628907	98.29042053222645	-1157.998413085938	440.5784912109376	229.7631072998046	-1128.947143554688	413.2901916503907	90.29836273193347	-1078.010986328125	420.0567932128907	145.4287567138671	-1006.858459472656	79.00105285644533	123.950469970703	-992.005065917969	115.3220748901367	212.8676147460937	-1029.017578125	21.9721851348877	168.3310394287109	-862.478454589844	100.5673828125	219.5439758300781	-852.4624023437502	119.7713699340821	164.5625610351562	-869.8278808593752	86.59947967529298	116.8191680908202	-1370.492431640625	856.2868652343752	440.1496276855468	-1440.905395507813	451.6714172363282	376.4678649902343	-1437.0126953125	445.5179138183595	240.6584167480468	-1486.485229492188	404.6275634765626	376.8649597167968	-1435.302490234375	366.5894775390626	323.8897094726561	-1650.973510742188	101.7119522094727	328.9806823730467	-1624.374389648438	105.534538269043	240.4008331298827	-1706.455322265625	69.81131744384767	273.6599121093748	-1512.713500976563	22.65428543090821	259.6548461914061	-1503.602172851563	35.53973388671876	315.9753417968749	-1557.065185546875	22.41352081298828	366.5147705078124	-1394.947631835938	1451.152709960938	253.7746582031249	-1460.82275390625	1236.444213867188	254.4520568847655	-1231.442749023438	1133.6064453125	241.4407653808593	-1272.849975585938	1361.95751953125	245.3571319580077	-1469.931274414063	1270.794921875	179.3794555664061	-1431.156982421875	1398.208129882813	145.4318389892577	-1401.725341796875	1393.798583984375	81.3760147094725	-1354.935180664063	1409.328002929688	64.70526885986312	-1453.391845703125	1091.789794921875	21.57658958435041	-1452.2236328125	1085.291625976563	89.8802185058592	-1466.570190429688	1070.43359375	65.46717834472639	-1427.389038085938	840.935974121094	-24.77072525024432	-1495.304931640625	867.8836669921877	-39.59938430786152	-1446.612915039063	749.0095214843751	-40.32750320434589	-1536.65283203125	790.9995727539065	-32.59903717041035	-1466.2734375	1269.306518554688	333.7811584472655	-1420.629272460938	1399.348266601563	362.1804809570311	-1371.809936523438	1399.652954101563	419.9692077636718	-1333.412353515625	1417.291259765625	419.8556213378906	-1306.639526367188	1094.27001953125	517.3810424804688	-1346.894409179688	1073.240844726563	453.5302734374999	-1336.450561523438	1051.53759765625	492.8568420410156	-1107.701171875	936.5147094726565	471.2312622070312	-1152.103881835938	908.4382324218752	520.6587524414062	-1038.031616210938	871.5209960937502	480.218994140625	-1125.320190429688	827.5809326171877	508.1062316894531	
4	0.03	-1205.5947265625	911.1109008789065	134.1501922607421	-1421.05224609375	965.8009033203127	185.5433044433592	-1428.92919921875	970.007751464844	279.5087280273436	-1227.19189453125	913.5302734375002	368.7989196777343	-1278.570434570313	846.6973266601565	41.0744018554686	-1114.822631835938	471.1887207031251	97.81639099121082	-1144.414428710938	439.8377990722657	228.8800506591796	-1115.310791015625	412.4341125488282	89.53714752197253	-1064.665405273438	418.7331848144532	145.0944213867186	-997.2030029296877	77.44189453125001	123.459373474121	-982.3847656250002	113.1787414550782	212.5281677246093	-1020.4482421875	21.25523376464844	167.744171142578	-853.0091552734377	96.58328247070315	219.6289672851562	-842.374206542969	115.2352676391602	164.5941162109374	-860.1964111328127	82.43563079833986	117.0447311401366	-1357.122924804688	855.3391113281252	438.9784851074218	-1429.130249023438	451.2576599121095	375.955841064453	-1424.5537109375	444.4580688476564	240.2635192871093	-1475.835205078125	405.1802673339845	376.4096069335936	-1425.172973632813	365.4745483398438	324.071075439453	-1648.387084960938	106.2610626220703	329.640167236328	-1621.038940429688	109.1462173461914	241.2738952636717	-1704.268188476563	76.13134002685548	273.862579345703	-1512.7861328125	22.37567329406739	259.7844238281249	-1503.589233398438	35.23147201538087	315.9487304687499	-1557.129760742188	22.37417221069336	366.293243408203	-1381.637817382813	1450.113525390625	251.8084869384764	-1447.06982421875	1235.267944335938	252.6432647705077	-1217.465576171875	1132.863403320313	240.5117797851562	-1259.33154296875	1361.149169921875	243.9878692626952	-1455.78759765625	1269.484619140625	177.2907714843749	-1417.19140625	1396.984619140625	143.3955688476561	-1387.475952148438	1392.775756835938	79.50448608398422	-1340.689331054688	1408.3427734375	62.99276351928696	-1440.474731445313	1091.511474609375	19.91686630249006	-1439.372680664063	1084.947509765625	88.14674377441391	-1453.73046875	1070.284301757813	63.8181190490721	-1417.820190429688	840.4138793945315	-26.12758445739764	-1484.908325195313	868.2107543945315	-41.30513763427754	-1438.130004882813	748.3393554687501	-40.83540725708026	-1527.52490234375	792.097839355469	-33.70792770385761	-1452.798217773438	1267.976928710938	331.5292968749999	-1407.867065429688	1398.294555664063	360.0929260253905	-1359.389282226563	1398.67919921875	418.1805725097656	-1321.008544921875	1416.40380859375	418.2959899902343	-1294.379150390625	1093.41943359375	516.0233764648438	-1334.613891601563	1072.279663085938	452.0979309082031	-1324.005615234375	1050.51123046875	491.4506835937499	-1093.910888671875	937.870788574219	469.9486083984375	-1138.150756835938	909.092468261719	519.1177978515625	-1023.606994628907	873.6724243164065	478.9217834472656	-1110.41259765625	828.572692871094	506.3319702148438	
